<?xml version="1.0" standalone="no"?><!DOCTYPE svg PUBLIC "-//W3C//DTD SVG 1.1//EN" "http://www.w3.org/Graphics/SVG/1.1/DTD/svg11.dtd"><svg t="1778774620198" class="icon" viewBox="0 0 1056 1024" version="1.1" xmlns="http://www.w3.org/2000/svg" p-id="6522" xmlns:xlink="http://www.w3.org/1999/xlink" width="206.25" height="200"><path d="M58.409982 29.204991h29.204991v29.204991H58.409982z m29.204991 0h29.204991v29.204991H87.614973z m29.204991 0h29.204991v29.204991H116.819964z m29.204991 0h29.204992v29.204991H146.024955z m29.204992 0h29.204991v29.204991H175.229947z m29.204991 0h29.204991v29.204991H204.434938z m29.204991 0h29.204991v29.204991H233.639929z m29.204991 0h29.204991v29.204991H262.84492z m29.204991 0h29.204991v29.204991h-29.204991z m29.204991 0h29.204991v29.204991h-29.204991z m29.204991 0h29.204991v29.204991h-29.204991z m29.204991 0h29.204991v29.204991h-29.204991z m29.204991 0h29.204991v29.204991h-29.204991z m29.204991 0h29.204991v29.204991h-29.204991z m29.204991 0h29.204991v29.204991h-29.204991z m29.204991 0h29.204992v29.204991h-29.204992z m29.204992 0h29.204991v29.204991h-29.204991z m29.204991 0h29.204991v29.204991h-29.204991z m29.204991 0h29.204991v29.204991h-29.204991z m29.204991 0h29.204991v29.204991h-29.204991z m29.204991 0h29.204991v29.204991h-29.204991z m29.204991 0h29.204991v29.204991h-29.204991z m29.204991 0h29.204991v29.204991h-29.204991z m29.204991 0h29.204991v29.204991h-29.204991z m29.204991 0h29.204991v29.204991h-29.204991z m29.204991 0h29.204991v29.204991h-29.204991z m29.204991 0h29.204992v29.204991h-29.204992z m29.204992 0h29.204991v29.204991h-29.204991z m29.204991 0h29.204991v29.204991h-29.204991z m29.204991 0h29.204991v29.204991h-29.204991zM29.204991 58.409982h29.204991v29.204991H29.204991z" fill="#FF9FAF" p-id="6523"></path><path d="M58.409982 58.409982h29.204991v29.204991H58.409982z m29.204991 0h29.204991v29.204991H87.614973z m29.204991 0h29.204991v29.204991H116.819964z m29.204991 0h29.204992v29.204991H146.024955z m29.204992 0h29.204991v29.204991H175.229947z m29.204991 0h29.204991v29.204991H204.434938z m29.204991 0h29.204991v29.204991H233.639929z m29.204991 0h29.204991v29.204991H262.84492z m29.204991 0h29.204991v29.204991h-29.204991z m29.204991 0h29.204991v29.204991h-29.204991z m29.204991 0h29.204991v29.204991h-29.204991z m29.204991 0h29.204991v29.204991h-29.204991z m29.204991 0h29.204991v29.204991h-29.204991z m29.204991 0h29.204991v29.204991h-29.204991z m29.204991 0h29.204991v29.204991h-29.204991z m29.204991 0h29.204992v29.204991h-29.204992z m29.204992 0h29.204991v29.204991h-29.204991z m29.204991 0h29.204991v29.204991h-29.204991z m29.204991 0h29.204991v29.204991h-29.204991z m29.204991 0h29.204991v29.204991h-29.204991z m29.204991 0h29.204991v29.204991h-29.204991z m29.204991 0h29.204991v29.204991h-29.204991z m29.204991 0h29.204991v29.204991h-29.204991z m29.204991 0h29.204991v29.204991h-29.204991z m29.204991 0h29.204991v29.204991h-29.204991z m29.204991 0h29.204991v29.204991h-29.204991z m29.204991 0h29.204992v29.204991h-29.204992z m29.204992 0h29.204991v29.204991h-29.204991z m29.204991 0h29.204991v29.204991h-29.204991z m29.204991 0h29.204991v29.204991h-29.204991z" fill="#FFFFFF" p-id="6524"></path><path d="M934.559715 58.409982h29.204991v29.204991h-29.204991zM29.204991 87.614973h29.204991v29.204991H29.204991z" fill="#FF9FAF" p-id="6525"></path><path d="M58.409982 87.614973h29.204991v29.204991H58.409982z" fill="#FFFFFF" p-id="6526"></path><path d="M87.614973 87.614973h29.204991v29.204991H87.614973z m29.204991 0h29.204991v29.204991H116.819964z m29.204991 0h29.204992v29.204991H146.024955z m29.204992 0h29.204991v29.204991H175.229947z m29.204991 0h29.204991v29.204991H204.434938z m29.204991 0h29.204991v29.204991H233.639929z m29.204991 0h29.204991v29.204991H262.84492z m29.204991 0h29.204991v29.204991h-29.204991z m29.204991 0h29.204991v29.204991h-29.204991z m29.204991 0h29.204991v29.204991h-29.204991z m29.204991 0h29.204991v29.204991h-29.204991z m29.204991 0h29.204991v29.204991h-29.204991z" fill="#FFBBC6" p-id="6527"></path><path d="M438.074866 87.614973h29.204991v29.204991h-29.204991z" fill="#FF9FAF" p-id="6528"></path><path d="M467.279857 87.614973h29.204991v29.204991h-29.204991z m29.204991 0h29.204992v29.204991h-29.204992z m29.204992 0h29.204991v29.204991h-29.204991z m29.204991 0h29.204991v29.204991h-29.204991z" fill="#FFFFFF" p-id="6529"></path><path d="M584.099822 87.614973h29.204991v29.204991h-29.204991z" fill="#FFD5AB" p-id="6530"></path><path d="M613.304813 87.614973h29.204991v29.204991h-29.204991z m29.204991 0h29.204991v29.204991h-29.204991z m29.204991 0h29.204991v29.204991h-29.204991z m29.204991 0h29.204991v29.204991h-29.204991z m29.204991 0h29.204991v29.204991h-29.204991z m29.204991 0h29.204991v29.204991h-29.204991z m29.204991 0h29.204991v29.204991h-29.204991z m29.204991 0h29.204992v29.204991h-29.204992z m29.204992 0h29.204991v29.204991h-29.204991z m29.204991 0h29.204991v29.204991h-29.204991z" fill="#FFECCB" p-id="6531"></path><path d="M905.354724 87.614973h29.204991v29.204991h-29.204991z" fill="#FFFFFF" p-id="6532"></path><path d="M934.559715 87.614973h29.204991v29.204991h-29.204991zM29.204991 116.819964h29.204991v29.204991H29.204991z" fill="#FF9FAF" p-id="6533"></path><path d="M58.409982 116.819964h29.204991v29.204991H58.409982z" fill="#FFFFFF" p-id="6534"></path><path d="M87.614973 116.819964h29.204991v29.204991H87.614973z m29.204991 0h29.204991v29.204991H116.819964z m29.204991 0h29.204992v29.204991H146.024955z m29.204992 0h29.204991v29.204991H175.229947z m29.204991 0h29.204991v29.204991H204.434938z m29.204991 0h29.204991v29.204991H233.639929z m29.204991 0h29.204991v29.204991H262.84492z m29.204991 0h29.204991v29.204991h-29.204991z m29.204991 0h29.204991v29.204991h-29.204991z m29.204991 0h29.204991v29.204991h-29.204991z m29.204991 0h29.204991v29.204991h-29.204991z m29.204991 0h29.204991v29.204991h-29.204991z" fill="#FFBBC6" p-id="6535"></path><path d="M438.074866 116.819964h29.204991v29.204991h-29.204991z" fill="#FF9FAF" p-id="6536"></path><path d="M467.279857 116.819964h29.204991v29.204991h-29.204991z m29.204991 0h29.204992v29.204991h-29.204992z m29.204992 0h29.204991v29.204991h-29.204991z m29.204991 0h29.204991v29.204991h-29.204991z" fill="#FFFFFF" p-id="6537"></path><path d="M584.099822 116.819964h29.204991v29.204991h-29.204991z m29.204991 0h29.204991v29.204991h-29.204991z" fill="#FFD5AB" p-id="6538"></path><path d="M642.509804 116.819964h29.204991v29.204991h-29.204991z m29.204991 0h29.204991v29.204991h-29.204991z m29.204991 0h29.204991v29.204991h-29.204991z m29.204991 0h29.204991v29.204991h-29.204991z m29.204991 0h29.204991v29.204991h-29.204991z m29.204991 0h29.204991v29.204991h-29.204991z m29.204991 0h29.204992v29.204991h-29.204992z m29.204992 0h29.204991v29.204991h-29.204991z m29.204991 0h29.204991v29.204991h-29.204991z" fill="#FFECCB" p-id="6539"></path><path d="M905.354724 116.819964h29.204991v29.204991h-29.204991z" fill="#FFFFFF" p-id="6540"></path><path d="M934.559715 116.819964h29.204991v29.204991h-29.204991zM29.204991 146.024955h29.204991v29.204992H29.204991z" fill="#FF9FAF" p-id="6541"></path><path d="M58.409982 146.024955h29.204991v29.204992H58.409982z" fill="#FFFFFF" p-id="6542"></path><path d="M87.614973 146.024955h29.204991v29.204992H87.614973z m29.204991 0h29.204991v29.204992H116.819964z m29.204991 0h29.204992v29.204992H146.024955z m29.204992 0h29.204991v29.204992H175.229947z m29.204991 0h29.204991v29.204992H204.434938z m29.204991 0h29.204991v29.204992H233.639929z m29.204991 0h29.204991v29.204992H262.84492z m29.204991 0h29.204991v29.204992h-29.204991z m29.204991 0h29.204991v29.204992h-29.204991z m29.204991 0h29.204991v29.204992h-29.204991z" fill="#FFBBC6" p-id="6543"></path><path d="M379.664884 146.024955h29.204991v29.204992h-29.204991z m29.204991 0h29.204991v29.204992h-29.204991z m29.204991 0h29.204991v29.204992h-29.204991z" fill="#FF9FAF" p-id="6544"></path><path d="M467.279857 146.024955h29.204991v29.204992h-29.204991z m29.204991 0h29.204992v29.204992h-29.204992z m29.204992 0h29.204991v29.204992h-29.204991z m29.204991 0h29.204991v29.204992h-29.204991z" fill="#FFFFFF" p-id="6545"></path><path d="M584.099822 146.024955h29.204991v29.204992h-29.204991z" fill="#FFD5AB" p-id="6546"></path><path d="M613.304813 146.024955h29.204991v29.204992h-29.204991z" fill="#FFFFFF" p-id="6547"></path><path d="M642.509804 146.024955h29.204991v29.204992h-29.204991z m29.204991 0h29.204991v29.204992h-29.204991z m29.204991 0h29.204991v29.204992h-29.204991z m29.204991 0h29.204991v29.204992h-29.204991z m29.204991 0h29.204991v29.204992h-29.204991z m29.204991 0h29.204991v29.204992h-29.204991z" fill="#FFD5AB" p-id="6548"></path><path d="M817.73975 146.024955h29.204992v29.204992h-29.204992z" fill="#FFFFFF" p-id="6549"></path><path d="M846.944742 146.024955h29.204991v29.204992h-29.204991z m29.204991 0h29.204991v29.204992h-29.204991z" fill="#FFD5AB" p-id="6550"></path><path d="M905.354724 146.024955h29.204991v29.204992h-29.204991z" fill="#FFFFFF" p-id="6551"></path><path d="M934.559715 146.024955h29.204991v29.204992h-29.204991zM29.204991 175.229947h29.204991v29.204991H29.204991z" fill="#FF9FAF" p-id="6552"></path><path d="M58.409982 175.229947h29.204991v29.204991H58.409982z" fill="#FFFFFF" p-id="6553"></path><path d="M87.614973 175.229947h29.204991v29.204991H87.614973z m29.204991 0h29.204991v29.204991H116.819964z m29.204991 0h29.204992v29.204991H146.024955z m29.204992 0h29.204991v29.204991H175.229947z m29.204991 0h29.204991v29.204991H204.434938z m29.204991 0h29.204991v29.204991H233.639929z m29.204991 0h29.204991v29.204991H262.84492z m29.204991 0h29.204991v29.204991h-29.204991z m29.204991 0h29.204991v29.204991h-29.204991z" fill="#FFBBC6" p-id="6554"></path><path d="M350.459893 175.229947h29.204991v29.204991h-29.204991z" fill="#FF9FAF" p-id="6555"></path><path d="M379.664884 175.229947h29.204991v29.204991h-29.204991z m29.204991 0h29.204991v29.204991h-29.204991z m29.204991 0h29.204991v29.204991h-29.204991z m29.204991 0h29.204991v29.204991h-29.204991z m29.204991 0h29.204992v29.204991h-29.204992z m29.204992 0h29.204991v29.204991h-29.204991z m29.204991 0h29.204991v29.204991h-29.204991z m29.204991 0h29.204991v29.204991h-29.204991z m29.204991 0h29.204991v29.204991h-29.204991z m29.204991 0h29.204991v29.204991h-29.204991z m29.204991 0h29.204991v29.204991h-29.204991z m29.204991 0h29.204991v29.204991h-29.204991z m29.204991 0h29.204991v29.204991h-29.204991z m29.204991 0h29.204991v29.204991h-29.204991z m29.204991 0h29.204991v29.204991h-29.204991z m29.204991 0h29.204992v29.204991h-29.204992z m29.204992 0h29.204991v29.204991h-29.204991z m29.204991 0h29.204991v29.204991h-29.204991z m29.204991 0h29.204991v29.204991h-29.204991z" fill="#FFFFFF" p-id="6556"></path><path d="M934.559715 175.229947h29.204991v29.204991h-29.204991zM29.204991 204.434938h29.204991v29.204991H29.204991z" fill="#FF9FAF" p-id="6557"></path><path d="M58.409982 204.434938h29.204991v29.204991H58.409982z" fill="#FFFFFF" p-id="6558"></path><path d="M87.614973 204.434938h29.204991v29.204991H87.614973z m29.204991 0h29.204991v29.204991H116.819964z m29.204991 0h29.204992v29.204991H146.024955z m29.204992 0h29.204991v29.204991H175.229947z m29.204991 0h29.204991v29.204991H204.434938z m29.204991 0h29.204991v29.204991H233.639929z m29.204991 0h29.204991v29.204991H262.84492z m29.204991 0h29.204991v29.204991h-29.204991z m29.204991 0h29.204991v29.204991h-29.204991z" fill="#FFBBC6" p-id="6559"></path><path d="M350.459893 204.434938h29.204991v29.204991h-29.204991z" fill="#FF9FAF" p-id="6560"></path><path d="M379.664884 204.434938h29.204991v29.204991h-29.204991z m29.204991 0h29.204991v29.204991h-29.204991z m29.204991 0h29.204991v29.204991h-29.204991z m29.204991 0h29.204991v29.204991h-29.204991z m29.204991 0h29.204992v29.204991h-29.204992z m29.204992 0h29.204991v29.204991h-29.204991z m29.204991 0h29.204991v29.204991h-29.204991z m29.204991 0h29.204991v29.204991h-29.204991z m29.204991 0h29.204991v29.204991h-29.204991z m29.204991 0h29.204991v29.204991h-29.204991z m29.204991 0h29.204991v29.204991h-29.204991z m29.204991 0h29.204991v29.204991h-29.204991z" fill="#FFFFFF" p-id="6561"></path><path d="M730.124777 204.434938h29.204991v29.204991h-29.204991z m29.204991 0h29.204991v29.204991h-29.204991z m29.204991 0h29.204991v29.204991h-29.204991z m29.204991 0h29.204992v29.204991h-29.204992z m29.204992 0h29.204991v29.204991h-29.204991z m29.204991 0h29.204991v29.204991h-29.204991z" fill="#FFD5AB" p-id="6562"></path><path d="M905.354724 204.434938h29.204991v29.204991h-29.204991z" fill="#FFFFFF" p-id="6563"></path><path d="M934.559715 204.434938h29.204991v29.204991h-29.204991zM29.204991 233.639929h29.204991v29.204991H29.204991z" fill="#FF9FAF" p-id="6564"></path><path d="M58.409982 233.639929h29.204991v29.204991H58.409982z" fill="#FFFFFF" p-id="6565"></path><path d="M87.614973 233.639929h29.204991v29.204991H87.614973z m29.204991 0h29.204991v29.204991H116.819964z m29.204991 0h29.204992v29.204991H146.024955z m29.204992 0h29.204991v29.204991H175.229947z m29.204991 0h29.204991v29.204991H204.434938z m29.204991 0h29.204991v29.204991H233.639929z m29.204991 0h29.204991v29.204991H262.84492z m29.204991 0h29.204991v29.204991h-29.204991z m29.204991 0h29.204991v29.204991h-29.204991z" fill="#FFBBC6" p-id="6566"></path><path d="M350.459893 233.639929h29.204991v29.204991h-29.204991z" fill="#FF9FAF" p-id="6567"></path><path d="M379.664884 233.639929h29.204991v29.204991h-29.204991z m29.204991 0h29.204991v29.204991h-29.204991z m29.204991 0h29.204991v29.204991h-29.204991z m29.204991 0h29.204991v29.204991h-29.204991z m29.204991 0h29.204992v29.204991h-29.204992z m29.204992 0h29.204991v29.204991h-29.204991z m29.204991 0h29.204991v29.204991h-29.204991z m29.204991 0h29.204991v29.204991h-29.204991z m29.204991 0h29.204991v29.204991h-29.204991z" fill="#FFFFFF" p-id="6568"></path><path d="M642.509804 233.639929h29.204991v29.204991h-29.204991z" fill="#FFD5AB" p-id="6569"></path><path d="M671.714795 233.639929h29.204991v29.204991h-29.204991z" fill="#FFFFFF" p-id="6570"></path><path d="M700.919786 233.639929h29.204991v29.204991h-29.204991z" fill="#FFD5AB" p-id="6571"></path><path d="M730.124777 233.639929h29.204991v29.204991h-29.204991z m29.204991 0h29.204991v29.204991h-29.204991z m29.204991 0h29.204991v29.204991h-29.204991z m29.204991 0h29.204992v29.204991h-29.204992z m29.204992 0h29.204991v29.204991h-29.204991z m29.204991 0h29.204991v29.204991h-29.204991z" fill="#FFECCB" p-id="6572"></path><path d="M905.354724 233.639929h29.204991v29.204991h-29.204991z" fill="#FFFFFF" p-id="6573"></path><path d="M934.559715 233.639929h29.204991v29.204991h-29.204991zM29.204991 262.84492h29.204991v29.204991H29.204991z" fill="#FF9FAF" p-id="6574"></path><path d="M58.409982 262.84492h29.204991v29.204991H58.409982z" fill="#FFFFFF" p-id="6575"></path><path d="M87.614973 262.84492h29.204991v29.204991H87.614973z m29.204991 0h29.204991v29.204991H116.819964z m29.204991 0h29.204992v29.204991H146.024955z m29.204992 0h29.204991v29.204991H175.229947z m29.204991 0h29.204991v29.204991H204.434938z m29.204991 0h29.204991v29.204991H233.639929z m29.204991 0h29.204991v29.204991H262.84492z m29.204991 0h29.204991v29.204991h-29.204991z m29.204991 0h29.204991v29.204991h-29.204991z" fill="#FFBBC6" p-id="6576"></path><path d="M350.459893 262.84492h29.204991v29.204991h-29.204991z" fill="#FF9FAF" p-id="6577"></path><path d="M379.664884 262.84492h29.204991v29.204991h-29.204991z m29.204991 0h29.204991v29.204991h-29.204991z m29.204991 0h29.204991v29.204991h-29.204991z m29.204991 0h29.204991v29.204991h-29.204991z m29.204991 0h29.204992v29.204991h-29.204992z m29.204992 0h29.204991v29.204991h-29.204991z m29.204991 0h29.204991v29.204991h-29.204991z m29.204991 0h29.204991v29.204991h-29.204991z m29.204991 0h29.204991v29.204991h-29.204991z m29.204991 0h29.204991v29.204991h-29.204991z m29.204991 0h29.204991v29.204991h-29.204991z" fill="#FFFFFF" p-id="6578"></path><path d="M700.919786 262.84492h29.204991v29.204991h-29.204991z" fill="#FFD5AB" p-id="6579"></path><path d="M730.124777 262.84492h29.204991v29.204991h-29.204991z m29.204991 0h29.204991v29.204991h-29.204991z m29.204991 0h29.204991v29.204991h-29.204991z m29.204991 0h29.204992v29.204991h-29.204992z m29.204992 0h29.204991v29.204991h-29.204991z m29.204991 0h29.204991v29.204991h-29.204991z" fill="#FFECCB" p-id="6580"></path><path d="M905.354724 262.84492h29.204991v29.204991h-29.204991z" fill="#FFFFFF" p-id="6581"></path><path d="M934.559715 262.84492h29.204991v29.204991h-29.204991zM29.204991 292.049911h29.204991v29.204991H29.204991z" fill="#FF9FAF" p-id="6582"></path><path d="M58.409982 292.049911h29.204991v29.204991H58.409982z" fill="#FFFFFF" p-id="6583"></path><path d="M87.614973 292.049911h29.204991v29.204991H87.614973z m29.204991 0h29.204991v29.204991H116.819964z m29.204991 0h29.204992v29.204991H146.024955z m29.204992 0h29.204991v29.204991H175.229947z m29.204991 0h29.204991v29.204991H204.434938z m29.204991 0h29.204991v29.204991H233.639929z m29.204991 0h29.204991v29.204991H262.84492z m29.204991 0h29.204991v29.204991h-29.204991z" fill="#FFBBC6" p-id="6584"></path><path d="M321.254902 292.049911h29.204991v29.204991h-29.204991z" fill="#FF9FAF" p-id="6585"></path><path d="M350.459893 292.049911h29.204991v29.204991h-29.204991z m29.204991 0h29.204991v29.204991h-29.204991z m29.204991 0h29.204991v29.204991h-29.204991z m29.204991 0h29.204991v29.204991h-29.204991z m29.204991 0h29.204991v29.204991h-29.204991z m29.204991 0h29.204992v29.204991h-29.204992z m29.204992 0h29.204991v29.204991h-29.204991z m29.204991 0h29.204991v29.204991h-29.204991z m29.204991 0h29.204991v29.204991h-29.204991z m29.204991 0h29.204991v29.204991h-29.204991z m29.204991 0h29.204991v29.204991h-29.204991z m29.204991 0h29.204991v29.204991h-29.204991z" fill="#FFFFFF" p-id="6586"></path><path d="M700.919786 292.049911h29.204991v29.204991h-29.204991z" fill="#FFD5AB" p-id="6587"></path><path d="M730.124777 292.049911h29.204991v29.204991h-29.204991z m29.204991 0h29.204991v29.204991h-29.204991z m29.204991 0h29.204991v29.204991h-29.204991z m29.204991 0h29.204992v29.204991h-29.204992z m29.204992 0h29.204991v29.204991h-29.204991z m29.204991 0h29.204991v29.204991h-29.204991z" fill="#FFECCB" p-id="6588"></path><path d="M905.354724 292.049911h29.204991v29.204991h-29.204991z" fill="#FFFFFF" p-id="6589"></path><path d="M934.559715 292.049911h29.204991v29.204991h-29.204991zM29.204991 321.254902h29.204991v29.204991H29.204991z" fill="#FF9FAF" p-id="6590"></path><path d="M58.409982 321.254902h29.204991v29.204991H58.409982z" fill="#FFFFFF" p-id="6591"></path><path d="M87.614973 321.254902h29.204991v29.204991H87.614973z m29.204991 0h29.204991v29.204991H116.819964z m29.204991 0h29.204992v29.204991H146.024955z m29.204992 0h29.204991v29.204991H175.229947z m29.204991 0h29.204991v29.204991H204.434938z m29.204991 0h29.204991v29.204991H233.639929z m29.204991 0h29.204991v29.204991H262.84492z" fill="#FFBBC6" p-id="6592"></path><path d="M292.049911 321.254902h29.204991v29.204991h-29.204991z" fill="#FF9FAF" p-id="6593"></path><path d="M321.254902 321.254902h29.204991v29.204991h-29.204991z m29.204991 0h29.204991v29.204991h-29.204991z m29.204991 0h29.204991v29.204991h-29.204991z m29.204991 0h29.204991v29.204991h-29.204991z m29.204991 0h29.204991v29.204991h-29.204991z m29.204991 0h29.204991v29.204991h-29.204991z m29.204991 0h29.204992v29.204991h-29.204992z m29.204992 0h29.204991v29.204991h-29.204991z" fill="#FFFFFF" p-id="6594"></path><path d="M554.894831 321.254902h29.204991v29.204991h-29.204991z" fill="#FFD5AB" p-id="6595"></path><path d="M584.099822 321.254902h29.204991v29.204991h-29.204991z m29.204991 0h29.204991v29.204991h-29.204991z m29.204991 0h29.204991v29.204991h-29.204991z" fill="#FFFFFF" p-id="6596"></path><path d="M671.714795 321.254902h29.204991v29.204991h-29.204991z" fill="#FFD5AB" p-id="6597"></path><path d="M700.919786 321.254902h29.204991v29.204991h-29.204991z m29.204991 0h29.204991v29.204991h-29.204991z m29.204991 0h29.204991v29.204991h-29.204991z m29.204991 0h29.204991v29.204991h-29.204991z m29.204991 0h29.204992v29.204991h-29.204992z m29.204992 0h29.204991v29.204991h-29.204991z m29.204991 0h29.204991v29.204991h-29.204991z" fill="#FFECCB" p-id="6598"></path><path d="M905.354724 321.254902h29.204991v29.204991h-29.204991z" fill="#FFFFFF" p-id="6599"></path><path d="M934.559715 321.254902h29.204991v29.204991h-29.204991zM29.204991 350.459893h29.204991v29.204991H29.204991z" fill="#FF9FAF" p-id="6600"></path><path d="M58.409982 350.459893h29.204991v29.204991H58.409982z" fill="#FFFFFF" p-id="6601"></path><path d="M87.614973 350.459893h29.204991v29.204991H87.614973z m29.204991 0h29.204991v29.204991H116.819964z m29.204991 0h29.204992v29.204991H146.024955z m29.204992 0h29.204991v29.204991H175.229947z m29.204991 0h29.204991v29.204991H204.434938z m29.204991 0h29.204991v29.204991H233.639929z m29.204991 0h29.204991v29.204991H262.84492z" fill="#FFBBC6" p-id="6602"></path><path d="M292.049911 350.459893h29.204991v29.204991h-29.204991z" fill="#FF9FAF" p-id="6603"></path><path d="M321.254902 350.459893h29.204991v29.204991h-29.204991z m29.204991 0h29.204991v29.204991h-29.204991z m29.204991 0h29.204991v29.204991h-29.204991z m29.204991 0h29.204991v29.204991h-29.204991z m29.204991 0h29.204991v29.204991h-29.204991z m29.204991 0h29.204991v29.204991h-29.204991z m29.204991 0h29.204992v29.204991h-29.204992z m29.204992 0h29.204991v29.204991h-29.204991z m29.204991 0h29.204991v29.204991h-29.204991z" fill="#FFFFFF" p-id="6604"></path><path d="M584.099822 350.459893h29.204991v29.204991h-29.204991z m29.204991 0h29.204991v29.204991h-29.204991z m29.204991 0h29.204991v29.204991h-29.204991z" fill="#FFD5AB" p-id="6605"></path><path d="M671.714795 350.459893h29.204991v29.204991h-29.204991z m29.204991 0h29.204991v29.204991h-29.204991z m29.204991 0h29.204991v29.204991h-29.204991z m29.204991 0h29.204991v29.204991h-29.204991z m29.204991 0h29.204991v29.204991h-29.204991z m29.204991 0h29.204992v29.204991h-29.204992z m29.204992 0h29.204991v29.204991h-29.204991z m29.204991 0h29.204991v29.204991h-29.204991z" fill="#FFECCB" p-id="6606"></path><path d="M905.354724 350.459893h29.204991v29.204991h-29.204991z" fill="#FFFFFF" p-id="6607"></path><path d="M934.559715 350.459893h29.204991v29.204991h-29.204991zM29.204991 379.664884h29.204991v29.204991H29.204991z" fill="#FF9FAF" p-id="6608"></path><path d="M58.409982 379.664884h29.204991v29.204991H58.409982z" fill="#FFFFFF" p-id="6609"></path><path d="M87.614973 379.664884h29.204991v29.204991H87.614973z m29.204991 0h29.204991v29.204991H116.819964z m29.204991 0h29.204992v29.204991H146.024955z m29.204992 0h29.204991v29.204991H175.229947z m29.204991 0h29.204991v29.204991H204.434938z m29.204991 0h29.204991v29.204991H233.639929z m29.204991 0h29.204991v29.204991H262.84492z" fill="#FFBBC6" p-id="6610"></path><path d="M292.049911 379.664884h29.204991v29.204991h-29.204991z" fill="#FF9FAF" p-id="6611"></path><path d="M321.254902 379.664884h29.204991v29.204991h-29.204991z m29.204991 0h29.204991v29.204991h-29.204991z m29.204991 0h29.204991v29.204991h-29.204991z m29.204991 0h29.204991v29.204991h-29.204991z m29.204991 0h29.204991v29.204991h-29.204991z m29.204991 0h29.204991v29.204991h-29.204991z m29.204991 0h29.204992v29.204991h-29.204992z m29.204992 0h29.204991v29.204991h-29.204991z m29.204991 0h29.204991v29.204991h-29.204991z" fill="#FFFFFF" p-id="6612"></path><path d="M584.099822 379.664884h29.204991v29.204991h-29.204991z" fill="#FFD5AB" p-id="6613"></path><path d="M613.304813 379.664884h29.204991v29.204991h-29.204991z m29.204991 0h29.204991v29.204991h-29.204991z m29.204991 0h29.204991v29.204991h-29.204991z m29.204991 0h29.204991v29.204991h-29.204991z m29.204991 0h29.204991v29.204991h-29.204991z m29.204991 0h29.204991v29.204991h-29.204991z m29.204991 0h29.204991v29.204991h-29.204991z m29.204991 0h29.204992v29.204991h-29.204992z m29.204992 0h29.204991v29.204991h-29.204991z m29.204991 0h29.204991v29.204991h-29.204991z" fill="#FFECCB" p-id="6614"></path><path d="M905.354724 379.664884h29.204991v29.204991h-29.204991z" fill="#FFFFFF" p-id="6615"></path><path d="M934.559715 379.664884h29.204991v29.204991h-29.204991zM29.204991 408.869875h29.204991v29.204991H29.204991z" fill="#FF9FAF" p-id="6616"></path><path d="M58.409982 408.869875h29.204991v29.204991H58.409982z" fill="#FFFFFF" p-id="6617"></path><path d="M87.614973 408.869875h29.204991v29.204991H87.614973z m29.204991 0h29.204991v29.204991H116.819964z m29.204991 0h29.204992v29.204991H146.024955z m29.204992 0h29.204991v29.204991H175.229947z m29.204991 0h29.204991v29.204991H204.434938z m29.204991 0h29.204991v29.204991H233.639929z m29.204991 0h29.204991v29.204991H262.84492z m29.204991 0h29.204991v29.204991h-29.204991z" fill="#FFBBC6" p-id="6618"></path><path d="M321.254902 408.869875h29.204991v29.204991h-29.204991z" fill="#FF9FAF" p-id="6619"></path><path d="M350.459893 408.869875h29.204991v29.204991h-29.204991z m29.204991 0h29.204991v29.204991h-29.204991z m29.204991 0h29.204991v29.204991h-29.204991z m29.204991 0h29.204991v29.204991h-29.204991z m29.204991 0h29.204991v29.204991h-29.204991z m29.204991 0h29.204992v29.204991h-29.204992z m29.204992 0h29.204991v29.204991h-29.204991z m29.204991 0h29.204991v29.204991h-29.204991z" fill="#FFFFFF" p-id="6620"></path><path d="M584.099822 408.869875h29.204991v29.204991h-29.204991z" fill="#FFD5AB" p-id="6621"></path><path d="M613.304813 408.869875h29.204991v29.204991h-29.204991z m29.204991 0h29.204991v29.204991h-29.204991z m29.204991 0h29.204991v29.204991h-29.204991z m29.204991 0h29.204991v29.204991h-29.204991z m29.204991 0h29.204991v29.204991h-29.204991z m29.204991 0h29.204991v29.204991h-29.204991z m29.204991 0h29.204991v29.204991h-29.204991z m29.204991 0h29.204992v29.204991h-29.204992z m29.204992 0h29.204991v29.204991h-29.204991z m29.204991 0h29.204991v29.204991h-29.204991z" fill="#FFECCB" p-id="6622"></path><path d="M905.354724 408.869875h29.204991v29.204991h-29.204991z" fill="#FFFFFF" p-id="6623"></path><path d="M934.559715 408.869875h29.204991v29.204991h-29.204991zM29.204991 438.074866h29.204991v29.204991H29.204991z" fill="#FF9FAF" p-id="6624"></path><path d="M58.409982 438.074866h29.204991v29.204991H58.409982z" fill="#FFFFFF" p-id="6625"></path><path d="M87.614973 438.074866h29.204991v29.204991H87.614973z m29.204991 0h29.204991v29.204991H116.819964z m29.204991 0h29.204992v29.204991H146.024955z m29.204992 0h29.204991v29.204991H175.229947z m29.204991 0h29.204991v29.204991H204.434938z m29.204991 0h29.204991v29.204991H233.639929z m29.204991 0h29.204991v29.204991H262.84492z m29.204991 0h29.204991v29.204991h-29.204991z" fill="#FFBBC6" p-id="6626"></path><path d="M321.254902 438.074866h29.204991v29.204991h-29.204991z" fill="#FF9FAF" p-id="6627"></path><path d="M350.459893 438.074866h29.204991v29.204991h-29.204991z m29.204991 0h29.204991v29.204991h-29.204991z m29.204991 0h29.204991v29.204991h-29.204991z m29.204991 0h29.204991v29.204991h-29.204991z m29.204991 0h29.204991v29.204991h-29.204991z m29.204991 0h29.204992v29.204991h-29.204992z m29.204992 0h29.204991v29.204991h-29.204991z m29.204991 0h29.204991v29.204991h-29.204991z" fill="#FFFFFF" p-id="6628"></path><path d="M584.099822 438.074866h29.204991v29.204991h-29.204991z" fill="#FFD5AB" p-id="6629"></path><path d="M613.304813 438.074866h29.204991v29.204991h-29.204991z m29.204991 0h29.204991v29.204991h-29.204991z m29.204991 0h29.204991v29.204991h-29.204991z m29.204991 0h29.204991v29.204991h-29.204991z m29.204991 0h29.204991v29.204991h-29.204991z m29.204991 0h29.204991v29.204991h-29.204991z m29.204991 0h29.204991v29.204991h-29.204991z m29.204991 0h29.204992v29.204991h-29.204992z m29.204992 0h29.204991v29.204991h-29.204991z m29.204991 0h29.204991v29.204991h-29.204991z" fill="#FFECCB" p-id="6630"></path><path d="M905.354724 438.074866h29.204991v29.204991h-29.204991z" fill="#FFFFFF" p-id="6631"></path><path d="M934.559715 438.074866h29.204991v29.204991h-29.204991zM29.204991 467.279857h29.204991v29.204991H29.204991z" fill="#FF9FAF" p-id="6632"></path><path d="M58.409982 467.279857h29.204991v29.204991H58.409982z" fill="#FFFFFF" p-id="6633"></path><path d="M87.614973 467.279857h29.204991v29.204991H87.614973z m29.204991 0h29.204991v29.204991H116.819964z m29.204991 0h29.204992v29.204991H146.024955z m29.204992 0h29.204991v29.204991H175.229947z m29.204991 0h29.204991v29.204991H204.434938z m29.204991 0h29.204991v29.204991H233.639929z m29.204991 0h29.204991v29.204991H262.84492z m29.204991 0h29.204991v29.204991h-29.204991z" fill="#FFBBC6" p-id="6634"></path><path d="M321.254902 467.279857h29.204991v29.204991h-29.204991z" fill="#FF9FAF" p-id="6635"></path><path d="M350.459893 467.279857h29.204991v29.204991h-29.204991z m29.204991 0h29.204991v29.204991h-29.204991z m29.204991 0h29.204991v29.204991h-29.204991z m29.204991 0h29.204991v29.204991h-29.204991z m29.204991 0h29.204991v29.204991h-29.204991z m29.204991 0h29.204992v29.204991h-29.204992z m29.204992 0h29.204991v29.204991h-29.204991z" fill="#FFFFFF" p-id="6636"></path><path d="M554.894831 467.279857h29.204991v29.204991h-29.204991z" fill="#FFD5AB" p-id="6637"></path><path d="M584.099822 467.279857h29.204991v29.204991h-29.204991z m29.204991 0h29.204991v29.204991h-29.204991z m29.204991 0h29.204991v29.204991h-29.204991z m29.204991 0h29.204991v29.204991h-29.204991z m29.204991 0h29.204991v29.204991h-29.204991z m29.204991 0h29.204991v29.204991h-29.204991z m29.204991 0h29.204991v29.204991h-29.204991z m29.204991 0h29.204991v29.204991h-29.204991z m29.204991 0h29.204992v29.204991h-29.204992z m29.204992 0h29.204991v29.204991h-29.204991z m29.204991 0h29.204991v29.204991h-29.204991z" fill="#FFECCB" p-id="6638"></path><path d="M905.354724 467.279857h29.204991v29.204991h-29.204991z" fill="#FFFFFF" p-id="6639"></path><path d="M934.559715 467.279857h29.204991v29.204991h-29.204991zM29.204991 496.484848h29.204991v29.204992H29.204991z" fill="#FF9FAF" p-id="6640"></path><path d="M58.409982 496.484848h29.204991v29.204992H58.409982z" fill="#FFFFFF" p-id="6641"></path><path d="M87.614973 496.484848h29.204991v29.204992H87.614973z m29.204991 0h29.204991v29.204992H116.819964z m29.204991 0h29.204992v29.204992H146.024955z m29.204992 0h29.204991v29.204992H175.229947z m29.204991 0h29.204991v29.204992H204.434938z m29.204991 0h29.204991v29.204992H233.639929z m29.204991 0h29.204991v29.204992H262.84492z m29.204991 0h29.204991v29.204992h-29.204991z" fill="#FF9FAF" p-id="6642"></path><path d="M321.254902 496.484848h29.204991v29.204992h-29.204991z m29.204991 0h29.204991v29.204992h-29.204991z m29.204991 0h29.204991v29.204992h-29.204991z m29.204991 0h29.204991v29.204992h-29.204991z m29.204991 0h29.204991v29.204992h-29.204991z m29.204991 0h29.204991v29.204992h-29.204991z m29.204991 0h29.204992v29.204992h-29.204992z m29.204992 0h29.204991v29.204992h-29.204991z m29.204991 0h29.204991v29.204992h-29.204991z" fill="#FFFFFF" p-id="6643"></path><path d="M584.099822 496.484848h29.204991v29.204992h-29.204991z m29.204991 0h29.204991v29.204992h-29.204991z m29.204991 0h29.204991v29.204992h-29.204991z m29.204991 0h29.204991v29.204992h-29.204991z m29.204991 0h29.204991v29.204992h-29.204991z m29.204991 0h29.204991v29.204992h-29.204991z m29.204991 0h29.204991v29.204992h-29.204991z m29.204991 0h29.204991v29.204992h-29.204991z m29.204991 0h29.204992v29.204992h-29.204992z m29.204992 0h29.204991v29.204992h-29.204991z m29.204991 0h29.204991v29.204992h-29.204991z" fill="#FFD5AB" p-id="6644"></path><path d="M905.354724 496.484848h29.204991v29.204992h-29.204991z" fill="#FFFFFF" p-id="6645"></path><path d="M934.559715 496.484848h29.204991v29.204992h-29.204991zM29.204991 525.68984h29.204991v29.204991H29.204991z" fill="#FF9FAF" p-id="6646"></path><path d="M58.409982 525.68984h29.204991v29.204991H58.409982z" fill="#FFFFFF" p-id="6647"></path><path d="M87.614973 525.68984h29.204991v29.204991H87.614973z m29.204991 0h29.204991v29.204991H116.819964z m29.204991 0h29.204992v29.204991H146.024955z m29.204992 0h29.204991v29.204991H175.229947z m29.204991 0h29.204991v29.204991H204.434938z m29.204991 0h29.204991v29.204991H233.639929z m29.204991 0h29.204991v29.204991H262.84492z" fill="#FFBBC6" p-id="6648"></path><path d="M292.049911 525.68984h29.204991v29.204991h-29.204991z" fill="#FF9FAF" p-id="6649"></path><path d="M321.254902 525.68984h29.204991v29.204991h-29.204991z m29.204991 0h29.204991v29.204991h-29.204991z m29.204991 0h29.204991v29.204991h-29.204991z m29.204991 0h29.204991v29.204991h-29.204991z m29.204991 0h29.204991v29.204991h-29.204991z m29.204991 0h29.204991v29.204991h-29.204991z m29.204991 0h29.204992v29.204991h-29.204992z m29.204992 0h29.204991v29.204991h-29.204991z m29.204991 0h29.204991v29.204991h-29.204991z" fill="#FFFFFF" p-id="6650"></path><path d="M584.099822 525.68984h29.204991v29.204991h-29.204991z" fill="#FFD5AB" p-id="6651"></path><path d="M613.304813 525.68984h29.204991v29.204991h-29.204991z m29.204991 0h29.204991v29.204991h-29.204991z m29.204991 0h29.204991v29.204991h-29.204991z m29.204991 0h29.204991v29.204991h-29.204991z m29.204991 0h29.204991v29.204991h-29.204991z m29.204991 0h29.204991v29.204991h-29.204991z m29.204991 0h29.204991v29.204991h-29.204991z m29.204991 0h29.204992v29.204991h-29.204992z m29.204992 0h29.204991v29.204991h-29.204991z m29.204991 0h29.204991v29.204991h-29.204991z" fill="#FFECCB" p-id="6652"></path><path d="M905.354724 525.68984h29.204991v29.204991h-29.204991z" fill="#FFFFFF" p-id="6653"></path><path d="M934.559715 525.68984h29.204991v29.204991h-29.204991zM29.204991 554.894831h29.204991v29.204991H29.204991z" fill="#FF9FAF" p-id="6654"></path><path d="M58.409982 554.894831h29.204991v29.204991H58.409982z" fill="#FFFFFF" p-id="6655"></path><path d="M87.614973 554.894831h29.204991v29.204991H87.614973z m29.204991 0h29.204991v29.204991H116.819964z m29.204991 0h29.204992v29.204991H146.024955z m29.204992 0h29.204991v29.204991H175.229947z m29.204991 0h29.204991v29.204991H204.434938z m29.204991 0h29.204991v29.204991H233.639929z m29.204991 0h29.204991v29.204991H262.84492z m29.204991 0h29.204991v29.204991h-29.204991z" fill="#FF9FAF" p-id="6656"></path><path d="M321.254902 554.894831h29.204991v29.204991h-29.204991z m29.204991 0h29.204991v29.204991h-29.204991z m29.204991 0h29.204991v29.204991h-29.204991z m29.204991 0h29.204991v29.204991h-29.204991z m29.204991 0h29.204991v29.204991h-29.204991z m29.204991 0h29.204991v29.204991h-29.204991z m29.204991 0h29.204992v29.204991h-29.204992z m29.204992 0h29.204991v29.204991h-29.204991z m29.204991 0h29.204991v29.204991h-29.204991z m29.204991 0h29.204991v29.204991h-29.204991z" fill="#FFFFFF" p-id="6657"></path><path d="M613.304813 554.894831h29.204991v29.204991h-29.204991z m29.204991 0h29.204991v29.204991h-29.204991z m29.204991 0h29.204991v29.204991h-29.204991z m29.204991 0h29.204991v29.204991h-29.204991z m29.204991 0h29.204991v29.204991h-29.204991z m29.204991 0h29.204991v29.204991h-29.204991z m29.204991 0h29.204991v29.204991h-29.204991z m29.204991 0h29.204992v29.204991h-29.204992z m29.204992 0h29.204991v29.204991h-29.204991z m29.204991 0h29.204991v29.204991h-29.204991z" fill="#FFD5AB" p-id="6658"></path><path d="M905.354724 554.894831h29.204991v29.204991h-29.204991z" fill="#FFFFFF" p-id="6659"></path><path d="M934.559715 554.894831h29.204991v29.204991h-29.204991zM29.204991 584.099822h29.204991v29.204991H29.204991z" fill="#FF9FAF" p-id="6660"></path><path d="M58.409982 584.099822h29.204991v29.204991H58.409982z" fill="#FFFFFF" p-id="6661"></path><path d="M87.614973 584.099822h29.204991v29.204991H87.614973z m29.204991 0h29.204991v29.204991H116.819964z m29.204991 0h29.204992v29.204991H146.024955z m29.204992 0h29.204991v29.204991H175.229947z m29.204991 0h29.204991v29.204991H204.434938z m29.204991 0h29.204991v29.204991H233.639929z m29.204991 0h29.204991v29.204991H262.84492z m29.204991 0h29.204991v29.204991h-29.204991z" fill="#FF9FAF" p-id="6662"></path><path d="M321.254902 584.099822h29.204991v29.204991h-29.204991z m29.204991 0h29.204991v29.204991h-29.204991z m29.204991 0h29.204991v29.204991h-29.204991z m29.204991 0h29.204991v29.204991h-29.204991z" fill="#FFFFFF" p-id="6663"></path><path d="M438.074866 584.099822h29.204991v29.204991h-29.204991z m29.204991 0h29.204991v29.204991h-29.204991z" fill="#FF9FAF" p-id="6664"></path><path d="M496.484848 584.099822h29.204992v29.204991h-29.204992z m29.204992 0h29.204991v29.204991h-29.204991z m29.204991 0h29.204991v29.204991h-29.204991z m29.204991 0h29.204991v29.204991h-29.204991z" fill="#FFFFFF" p-id="6665"></path><path d="M613.304813 584.099822h29.204991v29.204991h-29.204991z m29.204991 0h29.204991v29.204991h-29.204991z m29.204991 0h29.204991v29.204991h-29.204991z m29.204991 0h29.204991v29.204991h-29.204991z m29.204991 0h29.204991v29.204991h-29.204991z m29.204991 0h29.204991v29.204991h-29.204991z m29.204991 0h29.204991v29.204991h-29.204991z m29.204991 0h29.204992v29.204991h-29.204992z m29.204992 0h29.204991v29.204991h-29.204991z m29.204991 0h29.204991v29.204991h-29.204991z" fill="#FFD5AB" p-id="6666"></path><path d="M905.354724 584.099822h29.204991v29.204991h-29.204991z" fill="#FFFFFF" p-id="6667"></path><path d="M934.559715 584.099822h29.204991v29.204991h-29.204991zM29.204991 613.304813h29.204991v29.204991H29.204991z" fill="#FF9FAF" p-id="6668"></path><path d="M58.409982 613.304813h29.204991v29.204991H58.409982z" fill="#FFFFFF" p-id="6669"></path><path d="M87.614973 613.304813h29.204991v29.204991H87.614973z m29.204991 0h29.204991v29.204991H116.819964z m29.204991 0h29.204992v29.204991H146.024955z m29.204992 0h29.204991v29.204991H175.229947z m29.204991 0h29.204991v29.204991H204.434938z m29.204991 0h29.204991v29.204991H233.639929z m29.204991 0h29.204991v29.204991H262.84492z m29.204991 0h29.204991v29.204991h-29.204991z" fill="#FF9FAF" p-id="6670"></path><path d="M321.254902 613.304813h29.204991v29.204991h-29.204991z m29.204991 0h29.204991v29.204991h-29.204991z m29.204991 0h29.204991v29.204991h-29.204991z" fill="#FFFFFF" p-id="6671"></path><path d="M408.869875 613.304813h29.204991v29.204991h-29.204991z m29.204991 0h29.204991v29.204991h-29.204991z m29.204991 0h29.204991v29.204991h-29.204991z" fill="#FF9FAF" p-id="6672"></path><path d="M496.484848 613.304813h29.204992v29.204991h-29.204992z m29.204992 0h29.204991v29.204991h-29.204991z m29.204991 0h29.204991v29.204991h-29.204991z m29.204991 0h29.204991v29.204991h-29.204991z m29.204991 0h29.204991v29.204991h-29.204991z" fill="#FFFFFF" p-id="6673"></path><path d="M642.509804 613.304813h29.204991v29.204991h-29.204991z m29.204991 0h29.204991v29.204991h-29.204991z m29.204991 0h29.204991v29.204991h-29.204991z m29.204991 0h29.204991v29.204991h-29.204991z m29.204991 0h29.204991v29.204991h-29.204991z m29.204991 0h29.204991v29.204991h-29.204991z m29.204991 0h29.204992v29.204991h-29.204992z m29.204992 0h29.204991v29.204991h-29.204991z m29.204991 0h29.204991v29.204991h-29.204991z" fill="#FFD5AB" p-id="6674"></path><path d="M905.354724 613.304813h29.204991v29.204991h-29.204991z" fill="#FFFFFF" p-id="6675"></path><path d="M934.559715 613.304813h29.204991v29.204991h-29.204991zM29.204991 642.509804h29.204991v29.204991H29.204991z" fill="#FF9FAF" p-id="6676"></path><path d="M58.409982 642.509804h29.204991v29.204991H58.409982z" fill="#FFFFFF" p-id="6677"></path><path d="M87.614973 642.509804h29.204991v29.204991H87.614973z m29.204991 0h29.204991v29.204991H116.819964z m29.204991 0h29.204992v29.204991H146.024955z m29.204992 0h29.204991v29.204991H175.229947z m29.204991 0h29.204991v29.204991H204.434938z m29.204991 0h29.204991v29.204991H233.639929z m29.204991 0h29.204991v29.204991H262.84492z m29.204991 0h29.204991v29.204991h-29.204991z" fill="#FF9FAF" p-id="6678"></path><path d="M321.254902 642.509804h29.204991v29.204991h-29.204991z m29.204991 0h29.204991v29.204991h-29.204991z m29.204991 0h29.204991v29.204991h-29.204991z" fill="#FFFFFF" p-id="6679"></path><path d="M408.869875 642.509804h29.204991v29.204991h-29.204991z m29.204991 0h29.204991v29.204991h-29.204991z m29.204991 0h29.204991v29.204991h-29.204991z m29.204991 0h29.204992v29.204991h-29.204992z" fill="#FF9FAF" p-id="6680"></path><path d="M525.68984 642.509804h29.204991v29.204991h-29.204991z m29.204991 0h29.204991v29.204991h-29.204991z m29.204991 0h29.204991v29.204991h-29.204991z m29.204991 0h29.204991v29.204991h-29.204991z" fill="#FFFFFF" p-id="6681"></path><path d="M642.509804 642.509804h29.204991v29.204991h-29.204991z m29.204991 0h29.204991v29.204991h-29.204991z m29.204991 0h29.204991v29.204991h-29.204991z m29.204991 0h29.204991v29.204991h-29.204991z m29.204991 0h29.204991v29.204991h-29.204991z m29.204991 0h29.204991v29.204991h-29.204991z m29.204991 0h29.204992v29.204991h-29.204992z m29.204992 0h29.204991v29.204991h-29.204991z m29.204991 0h29.204991v29.204991h-29.204991z" fill="#FFD5AB" p-id="6682"></path><path d="M905.354724 642.509804h29.204991v29.204991h-29.204991z" fill="#FFFFFF" p-id="6683"></path><path d="M934.559715 642.509804h29.204991v29.204991h-29.204991zM29.204991 671.714795h29.204991v29.204991H29.204991z" fill="#FF9FAF" p-id="6684"></path><path d="M58.409982 671.714795h29.204991v29.204991H58.409982z" fill="#FFFFFF" p-id="6685"></path><path d="M87.614973 671.714795h29.204991v29.204991H87.614973z m29.204991 0h29.204991v29.204991H116.819964z m29.204991 0h29.204992v29.204991H146.024955z m29.204992 0h29.204991v29.204991H175.229947z m29.204991 0h29.204991v29.204991H204.434938z m29.204991 0h29.204991v29.204991H233.639929z m29.204991 0h29.204991v29.204991H262.84492z" fill="#FF9FAF" p-id="6686"></path><path d="M292.049911 671.714795h29.204991v29.204991h-29.204991z m29.204991 0h29.204991v29.204991h-29.204991z m29.204991 0h29.204991v29.204991h-29.204991z" fill="#FFFFFF" p-id="6687"></path><path d="M379.664884 671.714795h29.204991v29.204991h-29.204991z m29.204991 0h29.204991v29.204991h-29.204991z m29.204991 0h29.204991v29.204991h-29.204991z m29.204991 0h29.204991v29.204991h-29.204991z m29.204991 0h29.204992v29.204991h-29.204992z" fill="#FF9FAF" p-id="6688"></path><path d="M525.68984 671.714795h29.204991v29.204991h-29.204991z m29.204991 0h29.204991v29.204991h-29.204991z m29.204991 0h29.204991v29.204991h-29.204991z m29.204991 0h29.204991v29.204991h-29.204991z" fill="#FFFFFF" p-id="6689"></path><path d="M642.509804 671.714795h29.204991v29.204991h-29.204991z m29.204991 0h29.204991v29.204991h-29.204991z m29.204991 0h29.204991v29.204991h-29.204991z m29.204991 0h29.204991v29.204991h-29.204991z m29.204991 0h29.204991v29.204991h-29.204991z m29.204991 0h29.204991v29.204991h-29.204991z m29.204991 0h29.204992v29.204991h-29.204992z m29.204992 0h29.204991v29.204991h-29.204991z m29.204991 0h29.204991v29.204991h-29.204991z" fill="#FFD5AB" p-id="6690"></path><path d="M905.354724 671.714795h29.204991v29.204991h-29.204991z" fill="#FFFFFF" p-id="6691"></path><path d="M934.559715 671.714795h29.204991v29.204991h-29.204991zM29.204991 700.919786h29.204991v29.204991H29.204991z" fill="#FF9FAF" p-id="6692"></path><path d="M58.409982 700.919786h29.204991v29.204991H58.409982z" fill="#FFFFFF" p-id="6693"></path><path d="M87.614973 700.919786h29.204991v29.204991H87.614973z m29.204991 0h29.204991v29.204991H116.819964z m29.204991 0h29.204992v29.204991H146.024955z m29.204992 0h29.204991v29.204991H175.229947z m29.204991 0h29.204991v29.204991H204.434938z m29.204991 0h29.204991v29.204991H233.639929z m29.204991 0h29.204991v29.204991H262.84492z" fill="#FF9FAF" p-id="6694"></path><path d="M292.049911 700.919786h29.204991v29.204991h-29.204991z m29.204991 0h29.204991v29.204991h-29.204991z m29.204991 0h29.204991v29.204991h-29.204991z" fill="#FFFFFF" p-id="6695"></path><path d="M379.664884 700.919786h29.204991v29.204991h-29.204991z m29.204991 0h29.204991v29.204991h-29.204991z m29.204991 0h29.204991v29.204991h-29.204991z m29.204991 0h29.204991v29.204991h-29.204991z m29.204991 0h29.204992v29.204991h-29.204992z" fill="#FF9FAF" p-id="6696"></path><path d="M525.68984 700.919786h29.204991v29.204991h-29.204991z m29.204991 0h29.204991v29.204991h-29.204991z m29.204991 0h29.204991v29.204991h-29.204991z m29.204991 0h29.204991v29.204991h-29.204991z" fill="#FFFFFF" p-id="6697"></path><path d="M642.509804 700.919786h29.204991v29.204991h-29.204991z m29.204991 0h29.204991v29.204991h-29.204991z m29.204991 0h29.204991v29.204991h-29.204991z m29.204991 0h29.204991v29.204991h-29.204991z m29.204991 0h29.204991v29.204991h-29.204991z m29.204991 0h29.204991v29.204991h-29.204991z m29.204991 0h29.204992v29.204991h-29.204992z m29.204992 0h29.204991v29.204991h-29.204991z m29.204991 0h29.204991v29.204991h-29.204991z" fill="#FFD5AB" p-id="6698"></path><path d="M905.354724 700.919786h29.204991v29.204991h-29.204991z" fill="#FFFFFF" p-id="6699"></path><path d="M934.559715 700.919786h29.204991v29.204991h-29.204991zM29.204991 730.124777h29.204991v29.204991H29.204991z" fill="#FF9FAF" p-id="6700"></path><path d="M58.409982 730.124777h29.204991v29.204991H58.409982z" fill="#FFFFFF" p-id="6701"></path><path d="M87.614973 730.124777h29.204991v29.204991H87.614973z m29.204991 0h29.204991v29.204991H116.819964z m29.204991 0h29.204992v29.204991H146.024955z m29.204992 0h29.204991v29.204991H175.229947z m29.204991 0h29.204991v29.204991H204.434938z m29.204991 0h29.204991v29.204991H233.639929z m29.204991 0h29.204991v29.204991H262.84492z" fill="#FF9FAF" p-id="6702"></path><path d="M292.049911 730.124777h29.204991v29.204991h-29.204991z m29.204991 0h29.204991v29.204991h-29.204991z m29.204991 0h29.204991v29.204991h-29.204991z" fill="#FFFFFF" p-id="6703"></path><path d="M379.664884 730.124777h29.204991v29.204991h-29.204991z m29.204991 0h29.204991v29.204991h-29.204991z m29.204991 0h29.204991v29.204991h-29.204991z m29.204991 0h29.204991v29.204991h-29.204991z m29.204991 0h29.204992v29.204991h-29.204992z" fill="#FF9FAF" p-id="6704"></path><path d="M525.68984 730.124777h29.204991v29.204991h-29.204991z m29.204991 0h29.204991v29.204991h-29.204991z m29.204991 0h29.204991v29.204991h-29.204991z m29.204991 0h29.204991v29.204991h-29.204991z" fill="#FFFFFF" p-id="6705"></path><path d="M642.509804 730.124777h29.204991v29.204991h-29.204991z m29.204991 0h29.204991v29.204991h-29.204991z m29.204991 0h29.204991v29.204991h-29.204991z m29.204991 0h29.204991v29.204991h-29.204991z m29.204991 0h29.204991v29.204991h-29.204991z m29.204991 0h29.204991v29.204991h-29.204991z m29.204991 0h29.204992v29.204991h-29.204992z m29.204992 0h29.204991v29.204991h-29.204991z m29.204991 0h29.204991v29.204991h-29.204991z" fill="#FFD5AB" p-id="6706"></path><path d="M905.354724 730.124777h29.204991v29.204991h-29.204991z" fill="#FFFFFF" p-id="6707"></path><path d="M934.559715 730.124777h29.204991v29.204991h-29.204991zM29.204991 759.329768h29.204991v29.204991H29.204991z" fill="#FF9FAF" p-id="6708"></path><path d="M58.409982 759.329768h29.204991v29.204991H58.409982z" fill="#FFFFFF" p-id="6709"></path><path d="M87.614973 759.329768h29.204991v29.204991H87.614973z m29.204991 0h29.204991v29.204991H116.819964z m29.204991 0h29.204992v29.204991H146.024955z m29.204992 0h29.204991v29.204991H175.229947z m29.204991 0h29.204991v29.204991H204.434938z m29.204991 0h29.204991v29.204991H233.639929z" fill="#FF9FAF" p-id="6710"></path><path d="M262.84492 759.329768h29.204991v29.204991H262.84492z m29.204991 0h29.204991v29.204991h-29.204991z m29.204991 0h29.204991v29.204991h-29.204991z" fill="#FFFFFF" p-id="6711"></path><path d="M350.459893 759.329768h29.204991v29.204991h-29.204991z m29.204991 0h29.204991v29.204991h-29.204991z m29.204991 0h29.204991v29.204991h-29.204991z m29.204991 0h29.204991v29.204991h-29.204991z m29.204991 0h29.204991v29.204991h-29.204991z m29.204991 0h29.204992v29.204991h-29.204992z" fill="#FF9FAF" p-id="6712"></path><path d="M525.68984 759.329768h29.204991v29.204991h-29.204991z m29.204991 0h29.204991v29.204991h-29.204991z m29.204991 0h29.204991v29.204991h-29.204991z m29.204991 0h29.204991v29.204991h-29.204991z" fill="#FFFFFF" p-id="6713"></path><path d="M642.509804 759.329768h29.204991v29.204991h-29.204991z m29.204991 0h29.204991v29.204991h-29.204991z m29.204991 0h29.204991v29.204991h-29.204991z m29.204991 0h29.204991v29.204991h-29.204991z m29.204991 0h29.204991v29.204991h-29.204991z m29.204991 0h29.204991v29.204991h-29.204991z m29.204991 0h29.204992v29.204991h-29.204992z m29.204992 0h29.204991v29.204991h-29.204991z m29.204991 0h29.204991v29.204991h-29.204991z" fill="#FFD5AB" p-id="6714"></path><path d="M905.354724 759.329768h29.204991v29.204991h-29.204991z" fill="#FFFFFF" p-id="6715"></path><path d="M934.559715 759.329768h29.204991v29.204991h-29.204991zM29.204991 788.534759h29.204991v29.204991H29.204991z" fill="#FF9FAF" p-id="6716"></path><path d="M58.409982 788.534759h29.204991v29.204991H58.409982z" fill="#FFFFFF" p-id="6717"></path><path d="M87.614973 788.534759h29.204991v29.204991H87.614973z m29.204991 0h29.204991v29.204991H116.819964z m29.204991 0h29.204992v29.204991H146.024955z m29.204992 0h29.204991v29.204991H175.229947z m29.204991 0h29.204991v29.204991H204.434938z m29.204991 0h29.204991v29.204991H233.639929z" fill="#FF9FAF" p-id="6718"></path><path d="M262.84492 788.534759h29.204991v29.204991H262.84492z m29.204991 0h29.204991v29.204991h-29.204991z m29.204991 0h29.204991v29.204991h-29.204991z" fill="#FFFFFF" p-id="6719"></path><path d="M350.459893 788.534759h29.204991v29.204991h-29.204991z m29.204991 0h29.204991v29.204991h-29.204991z m29.204991 0h29.204991v29.204991h-29.204991z m29.204991 0h29.204991v29.204991h-29.204991z m29.204991 0h29.204991v29.204991h-29.204991z m29.204991 0h29.204992v29.204991h-29.204992z m29.204992 0h29.204991v29.204991h-29.204991z" fill="#FF9FAF" p-id="6720"></path><path d="M554.894831 788.534759h29.204991v29.204991h-29.204991z m29.204991 0h29.204991v29.204991h-29.204991z" fill="#FFFFFF" p-id="6721"></path><path d="M613.304813 788.534759h29.204991v29.204991h-29.204991z m29.204991 0h29.204991v29.204991h-29.204991z m29.204991 0h29.204991v29.204991h-29.204991z m29.204991 0h29.204991v29.204991h-29.204991z m29.204991 0h29.204991v29.204991h-29.204991z m29.204991 0h29.204991v29.204991h-29.204991z m29.204991 0h29.204991v29.204991h-29.204991z m29.204991 0h29.204992v29.204991h-29.204992z m29.204992 0h29.204991v29.204991h-29.204991z m29.204991 0h29.204991v29.204991h-29.204991z" fill="#FFD5AB" p-id="6722"></path><path d="M905.354724 788.534759h29.204991v29.204991h-29.204991z" fill="#FFFFFF" p-id="6723"></path><path d="M934.559715 788.534759h29.204991v29.204991h-29.204991zM29.204991 817.73975h29.204991v29.204992H29.204991z" fill="#FF9FAF" p-id="6724"></path><path d="M58.409982 817.73975h29.204991v29.204992H58.409982z" fill="#FFFFFF" p-id="6725"></path><path d="M87.614973 817.73975h29.204991v29.204992H87.614973z m29.204991 0h29.204991v29.204992H116.819964z m29.204991 0h29.204992v29.204992H146.024955z m29.204992 0h29.204991v29.204992H175.229947z m29.204991 0h29.204991v29.204992H204.434938z m29.204991 0h29.204991v29.204992H233.639929z" fill="#FF9FAF" p-id="6726"></path><path d="M262.84492 817.73975h29.204991v29.204992H262.84492z m29.204991 0h29.204991v29.204992h-29.204991z" fill="#FFFFFF" p-id="6727"></path><path d="M321.254902 817.73975h29.204991v29.204992h-29.204991z m29.204991 0h29.204991v29.204992h-29.204991z m29.204991 0h29.204991v29.204992h-29.204991z m29.204991 0h29.204991v29.204992h-29.204991z m29.204991 0h29.204991v29.204992h-29.204991z m29.204991 0h29.204991v29.204992h-29.204991z m29.204991 0h29.204992v29.204992h-29.204992z m29.204992 0h29.204991v29.204992h-29.204991z" fill="#FF9FAF" p-id="6728"></path><path d="M554.894831 817.73975h29.204991v29.204992h-29.204991z m29.204991 0h29.204991v29.204992h-29.204991z" fill="#FFFFFF" p-id="6729"></path><path d="M613.304813 817.73975h29.204991v29.204992h-29.204991z m29.204991 0h29.204991v29.204992h-29.204991z m29.204991 0h29.204991v29.204992h-29.204991z m29.204991 0h29.204991v29.204992h-29.204991z m29.204991 0h29.204991v29.204992h-29.204991z m29.204991 0h29.204991v29.204992h-29.204991z m29.204991 0h29.204991v29.204992h-29.204991z m29.204991 0h29.204992v29.204992h-29.204992z m29.204992 0h29.204991v29.204992h-29.204991z m29.204991 0h29.204991v29.204992h-29.204991z" fill="#FFD5AB" p-id="6730"></path><path d="M905.354724 817.73975h29.204991v29.204992h-29.204991z" fill="#FFFFFF" p-id="6731"></path><path d="M934.559715 817.73975h29.204991v29.204992h-29.204991zM29.204991 846.944742h29.204991v29.204991H29.204991z" fill="#FF9FAF" p-id="6732"></path><path d="M58.409982 846.944742h29.204991v29.204991H58.409982z" fill="#FFFFFF" p-id="6733"></path><path d="M87.614973 846.944742h29.204991v29.204991H87.614973z m29.204991 0h29.204991v29.204991H116.819964z m29.204991 0h29.204992v29.204991H146.024955z m29.204992 0h29.204991v29.204991H175.229947z m29.204991 0h29.204991v29.204991H204.434938z m29.204991 0h29.204991v29.204991H233.639929z" fill="#FF9FAF" p-id="6734"></path><path d="M262.84492 846.944742h29.204991v29.204991H262.84492z m29.204991 0h29.204991v29.204991h-29.204991z" fill="#FFFFFF" p-id="6735"></path><path d="M321.254902 846.944742h29.204991v29.204991h-29.204991z m29.204991 0h29.204991v29.204991h-29.204991z m29.204991 0h29.204991v29.204991h-29.204991z m29.204991 0h29.204991v29.204991h-29.204991z m29.204991 0h29.204991v29.204991h-29.204991z m29.204991 0h29.204991v29.204991h-29.204991z m29.204991 0h29.204992v29.204991h-29.204992z m29.204992 0h29.204991v29.204991h-29.204991z" fill="#FF9FAF" p-id="6736"></path><path d="M554.894831 846.944742h29.204991v29.204991h-29.204991z m29.204991 0h29.204991v29.204991h-29.204991z m29.204991 0h29.204991v29.204991h-29.204991z m29.204991 0h29.204991v29.204991h-29.204991z" fill="#FFFFFF" p-id="6737"></path><path d="M671.714795 846.944742h29.204991v29.204991h-29.204991z m29.204991 0h29.204991v29.204991h-29.204991z m29.204991 0h29.204991v29.204991h-29.204991z m29.204991 0h29.204991v29.204991h-29.204991z m29.204991 0h29.204991v29.204991h-29.204991z m29.204991 0h29.204992v29.204991h-29.204992z m29.204992 0h29.204991v29.204991h-29.204991z m29.204991 0h29.204991v29.204991h-29.204991z" fill="#FFD5AB" p-id="6738"></path><path d="M905.354724 846.944742h29.204991v29.204991h-29.204991z" fill="#FFFFFF" p-id="6739"></path><path d="M934.559715 846.944742h29.204991v29.204991h-29.204991zM29.204991 876.149733h29.204991v29.204991H29.204991z" fill="#FF9FAF" p-id="6740"></path><path d="M58.409982 876.149733h29.204991v29.204991H58.409982z" fill="#FFFFFF" p-id="6741"></path><path d="M87.614973 876.149733h29.204991v29.204991H87.614973z m29.204991 0h29.204991v29.204991H116.819964z m29.204991 0h29.204992v29.204991H146.024955z m29.204992 0h29.204991v29.204991H175.229947z m29.204991 0h29.204991v29.204991H204.434938z m29.204991 0h29.204991v29.204991H233.639929z" fill="#FF9FAF" p-id="6742"></path><path d="M262.84492 876.149733h29.204991v29.204991H262.84492z m29.204991 0h29.204991v29.204991h-29.204991z" fill="#FFFFFF" p-id="6743"></path><path d="M321.254902 876.149733h29.204991v29.204991h-29.204991z m29.204991 0h29.204991v29.204991h-29.204991z m29.204991 0h29.204991v29.204991h-29.204991z m29.204991 0h29.204991v29.204991h-29.204991z m29.204991 0h29.204991v29.204991h-29.204991z m29.204991 0h29.204991v29.204991h-29.204991z m29.204991 0h29.204992v29.204991h-29.204992z m29.204992 0h29.204991v29.204991h-29.204991z" fill="#FF9FAF" p-id="6744"></path><path d="M554.894831 876.149733h29.204991v29.204991h-29.204991z m29.204991 0h29.204991v29.204991h-29.204991z m29.204991 0h29.204991v29.204991h-29.204991z m29.204991 0h29.204991v29.204991h-29.204991z m29.204991 0h29.204991v29.204991h-29.204991z" fill="#FFFFFF" p-id="6745"></path><path d="M700.919786 876.149733h29.204991v29.204991h-29.204991z m29.204991 0h29.204991v29.204991h-29.204991z m29.204991 0h29.204991v29.204991h-29.204991z m29.204991 0h29.204991v29.204991h-29.204991z m29.204991 0h29.204992v29.204991h-29.204992z m29.204992 0h29.204991v29.204991h-29.204991z m29.204991 0h29.204991v29.204991h-29.204991z" fill="#FFD5AB" p-id="6746"></path><path d="M905.354724 876.149733h29.204991v29.204991h-29.204991z" fill="#FFFFFF" p-id="6747"></path><path d="M934.559715 876.149733h29.204991v29.204991h-29.204991zM29.204991 905.354724h29.204991v29.204991H29.204991z" fill="#FF9FAF" p-id="6748"></path><path d="M58.409982 905.354724h29.204991v29.204991H58.409982z m29.204991 0h29.204991v29.204991H87.614973z m29.204991 0h29.204991v29.204991H116.819964z m29.204991 0h29.204992v29.204991H146.024955z m29.204992 0h29.204991v29.204991H175.229947z m29.204991 0h29.204991v29.204991H204.434938z m29.204991 0h29.204991v29.204991H233.639929z m29.204991 0h29.204991v29.204991H262.84492z m29.204991 0h29.204991v29.204991h-29.204991z m29.204991 0h29.204991v29.204991h-29.204991z m29.204991 0h29.204991v29.204991h-29.204991z m29.204991 0h29.204991v29.204991h-29.204991z m29.204991 0h29.204991v29.204991h-29.204991z m29.204991 0h29.204991v29.204991h-29.204991z m29.204991 0h29.204991v29.204991h-29.204991z m29.204991 0h29.204992v29.204991h-29.204992z m29.204992 0h29.204991v29.204991h-29.204991z m29.204991 0h29.204991v29.204991h-29.204991z m29.204991 0h29.204991v29.204991h-29.204991z m29.204991 0h29.204991v29.204991h-29.204991z m29.204991 0h29.204991v29.204991h-29.204991z m29.204991 0h29.204991v29.204991h-29.204991z m29.204991 0h29.204991v29.204991h-29.204991z m29.204991 0h29.204991v29.204991h-29.204991z m29.204991 0h29.204991v29.204991h-29.204991z m29.204991 0h29.204991v29.204991h-29.204991z m29.204991 0h29.204992v29.204991h-29.204992z m29.204992 0h29.204991v29.204991h-29.204991z m29.204991 0h29.204991v29.204991h-29.204991z m29.204991 0h29.204991v29.204991h-29.204991z" fill="#FFFFFF" p-id="6749"></path><path d="M934.559715 905.354724h29.204991v29.204991h-29.204991zM58.409982 934.559715h29.204991v29.204991H58.409982z m29.204991 0h29.204991v29.204991H87.614973z m29.204991 0h29.204991v29.204991H116.819964z m29.204991 0h29.204992v29.204991H146.024955z m29.204992 0h29.204991v29.204991H175.229947z m29.204991 0h29.204991v29.204991H204.434938z m29.204991 0h29.204991v29.204991H233.639929z m29.204991 0h29.204991v29.204991H262.84492z m29.204991 0h29.204991v29.204991h-29.204991z m29.204991 0h29.204991v29.204991h-29.204991z m29.204991 0h29.204991v29.204991h-29.204991z m29.204991 0h29.204991v29.204991h-29.204991z m29.204991 0h29.204991v29.204991h-29.204991z m29.204991 0h29.204991v29.204991h-29.204991z m29.204991 0h29.204991v29.204991h-29.204991z m29.204991 0h29.204992v29.204991h-29.204992z m29.204992 0h29.204991v29.204991h-29.204991z m29.204991 0h29.204991v29.204991h-29.204991z m29.204991 0h29.204991v29.204991h-29.204991z m29.204991 0h29.204991v29.204991h-29.204991z m29.204991 0h29.204991v29.204991h-29.204991z m29.204991 0h29.204991v29.204991h-29.204991z m29.204991 0h29.204991v29.204991h-29.204991z m29.204991 0h29.204991v29.204991h-29.204991z m29.204991 0h29.204991v29.204991h-29.204991z m29.204991 0h29.204991v29.204991h-29.204991z m29.204991 0h29.204992v29.204991h-29.204992z m29.204992 0h29.204991v29.204991h-29.204991z m29.204991 0h29.204991v29.204991h-29.204991z m29.204991 0h29.204991v29.204991h-29.204991z" fill="#FF9FAF" p-id="6750"></path></svg>